# xmcd
# 
# Track frame offsets:
#     150
#     12359
#     28414
#     47482
#     69208
#     85621
#     104278
#     118555
#     137770
#     163146
#     181587
# 
# Disc length: 2720
# 
# Revision: 0
# Processed by: cddbd v1.5.2PL0 Copyright (c) Steve Scherf et al.
# Submitted via: fre:ac v1.0.17
# 
DISCID=840a9e0b
DTITLE=Rod Piazza - California Blues
DYEAR=1997
DGENRE=Blues
TTITLE0=Chicken Shack Boogie
TTITLE1=Bad, Bad Boy
TTITLE2=No More Pretty Presents
TTITLE3=California Blues
TTITLE4=One Mint Julep
TTITLE5=Worried Life Blues
TTITLE6=Deep Fried
TTITLE7=Can't Get That Stuff No More
TTITLE8=4811 Wadsworth
TTITLE9=It's Too Late Brother
TTITLE10=Low Down Dog
EXTD=
EXTT0=
EXTT1=
EXTT2=
EXTT3=
EXTT4=
EXTT5=
EXTT6=
EXTT7=
EXTT8=(a.k.a. Blues For George)
EXTT9=
EXTT10=
PLAYORDER=
